HIERARCHY
ROOT hip
{
  OFFSET 0 90.174 2.4664
  CHANNELS 6 Xposition Yposition Zposition Zrotation Xrotation Yrotation
  JOINT abdomen
  {
    OFFSET 0 -1.186 -1.5018
    CHANNELS 6 Xposition Yposition Zposition Zrotation Xrotation Yrotation
    JOINT abdomen2
    {
      OFFSET 0 9.964 0.2134
      CHANNELS 6 Xposition Yposition Zposition Zrotation Xrotation Yrotation
      JOINT chest
      {
        OFFSET 0 13.134 -3.2573
        CHANNELS 6 Xposition Yposition Zposition Zrotation Xrotation Yrotation
        JOINT neck
        {
          OFFSET 0 20.686 -1.6905
          CHANNELS 6 Xposition Yposition Zposition Zrotation Xrotation Yrotation
          JOINT head
          {
            OFFSET 0 7.238 -0.1237
            CHANNELS 6 Xposition Yposition Zposition Zrotation Xrotation Yrotation
            End Site
            {
              OFFSET 0 0 0
            }
          }
        }
        JOINT lCollar
        {
          OFFSET 1.7069 20.075 5.0056
          CHANNELS 6 Xposition Yposition Zposition Zrotation Xrotation Yrotation
          JOINT lShldr
          {
            OFFSET 13.6458 -0.047 -4.849
            CHANNELS 6 Xposition Yposition Zposition Zrotation Xrotation Yrotation
            JOINT lForeArm
            {
              OFFSET 28.3255 -0.9759 2.2888
              CHANNELS 6 Xposition Yposition Zposition Zrotation Xrotation Yrotation
              JOINT lHand
              {
                OFFSET 22.1583 -0.53 10.8316
                CHANNELS 6 Xposition Yposition Zposition Zrotation Xrotation Yrotation
                JOINT lThumb1
                {
                  OFFSET 0.786 0.112 2.5817
                  CHANNELS 6 Xposition Yposition Zposition Zrotation Xrotation Yrotation
                  JOINT lThumb2
                  {
                    OFFSET 0.3601 -0.878 4.2331
                    CHANNELS 6 Xposition Yposition Zposition Zrotation Xrotation Yrotation
                    JOINT lThumb2_End
                    {
                      OFFSET 1.8127 -1.216 2.2227
                      CHANNELS 6 Xposition Yposition Zposition Zrotation Xrotation Yrotation
                      End Site
                      {
                        OFFSET 0.0181 -0.0122 0.0222
                      }
                    }
                  }
                }
                JOINT lCarpal1
                {
                  OFFSET 0.9571 1.114 1.7695
                  CHANNELS 6 Xposition Yposition Zposition Zrotation Xrotation Yrotation
                  JOINT lIndex1
                  {
                    OFFSET 4.1246 0.487 4.1451
                    CHANNELS 6 Xposition Yposition Zposition Zrotation Xrotation Yrotation
                    JOINT lIndex2
                    {
                      OFFSET 3.4052 -1.454 2.7682
                      CHANNELS 6 Xposition Yposition Zposition Zrotation Xrotation Yrotation
                      JOINT lIndex2_End
                      {
                        OFFSET 1.4531 -1.795 1.2713
                        CHANNELS 6 Xposition Yposition Zposition Zrotation Xrotation Yrotation
                        End Site
                        {
                          OFFSET 0.0145 -0.0179 0.0127
                        }
                      }
                    }
                  }
                  JOINT lMid1
                  {
                    OFFSET 5.6954 0.21 2.1184
                    CHANNELS 6 Xposition Yposition Zposition Zrotation Xrotation Yrotation
                    JOINT lMid2
                    {
                      OFFSET 3.9766 -1.54 2.3863
                      CHANNELS 6 Xposition Yposition Zposition Zrotation Xrotation Yrotation
                      JOINT lMid2_End
                      {
                        OFFSET 1.4042 -1.926 1.125
                        CHANNELS 6 Xposition Yposition Zposition Zrotation Xrotation Yrotation
                        End Site
                        {
                          OFFSET 0.014 -0.0193 0.0113
                        }
                      }
                    }
                  }
                }
                JOINT lCarpal2
                {
                  OFFSET 2.0956 0.66 -0.3894
                  CHANNELS 6 Xposition Yposition Zposition Zrotation Xrotation Yrotation
                  JOINT lRing1
                  {
                    OFFSET 5.0395 -0.09 2.4971
                    CHANNELS 6 Xposition Yposition Zposition Zrotation Xrotation Yrotation
                    JOINT lRing2
                    {
                      OFFSET 3.7921 -1.552 1.4806
                      CHANNELS 6 Xposition Yposition Zposition Zrotation Xrotation Yrotation
                      JOINT lRing2_End
                      {
                        OFFSET 1.4655 -1.808 0.9609
                        CHANNELS 6 Xposition Yposition Zposition Zrotation Xrotation Yrotation
                        End Site
                        {
                          OFFSET 0.0147 -0.0181 0.0096
                        }
                      }
                    }
                  }
                  JOINT lPinky1
                  {
                    OFFSET 4.9141 -1.269 0.3591
                    CHANNELS 6 Xposition Yposition Zposition Zrotation Xrotation Yrotation
                    JOINT lPinky2
                    {
                      OFFSET 3.1477 -1.685 0.8462
                      CHANNELS 6 Xposition Yposition Zposition Zrotation Xrotation Yrotation
                      JOINT lPinky2_End
                      {
                        OFFSET 0.8055 -1.585 0.7955
                        CHANNELS 6 Xposition Yposition Zposition Zrotation Xrotation Yrotation
                        End Site
                        {
                          OFFSET 0.0081 -0.0158 0.008
                        }
                      }
                    }
                  }
                }
              }
            }
          }
        }
        JOINT rCollar
        {
          OFFSET -1.7069 20.075 5.0056
          CHANNELS 6 Xposition Yposition Zposition Zrotation Xrotation Yrotation
          JOINT rShldr
          {
            OFFSET -13.6458 -0.047 -4.849
            CHANNELS 6 Xposition Yposition Zposition Zrotation Xrotation Yrotation
            JOINT rForeArm
            {
              OFFSET -28.3255 -0.9759 2.2888
              CHANNELS 6 Xposition Yposition Zposition Zrotation Xrotation Yrotation
              JOINT rHand
              {
                OFFSET -22.1583 -0.53 10.8316
                CHANNELS 6 Xposition Yposition Zposition Zrotation Xrotation Yrotation
                JOINT rThumb1
                {
                  OFFSET -0.786 0.112 2.5817
                  CHANNELS 6 Xposition Yposition Zposition Zrotation Xrotation Yrotation
                  JOINT rThumb2
                  {
                    OFFSET -0.3601 -0.878 4.2331
                    CHANNELS 6 Xposition Yposition Zposition Zrotation Xrotation Yrotation
                    JOINT rThumb2_End
                    {
                      OFFSET -1.8127 -1.216 2.2227
                      CHANNELS 6 Xposition Yposition Zposition Zrotation Xrotation Yrotation
                      End Site
                      {
                        OFFSET -0.0181 -0.0122 0.0222
                      }
                    }
                  }
                }
                JOINT rCarpal1
                {
                  OFFSET -0.9571 1.114 1.7695
                  CHANNELS 6 Xposition Yposition Zposition Zrotation Xrotation Yrotation
                  JOINT rIndex1
                  {
                    OFFSET -4.1246 0.487 4.1451
                    CHANNELS 6 Xposition Yposition Zposition Zrotation Xrotation Yrotation
                    JOINT rIndex2
                    {
                      OFFSET -3.4052 -1.454 2.7682
                      CHANNELS 6 Xposition Yposition Zposition Zrotation Xrotation Yrotation
                      JOINT rIndex2_End
                      {
                        OFFSET -1.4531 -1.795 1.2713
                        CHANNELS 6 Xposition Yposition Zposition Zrotation Xrotation Yrotation
                        End Site
                        {
                          OFFSET -0.0145 -0.018 0.0127
                        }
                      }
                    }
                  }
                  JOINT rMid1
                  {
                    OFFSET -5.6954 0.21 2.1184
                    CHANNELS 6 Xposition Yposition Zposition Zrotation Xrotation Yrotation
                    JOINT rMid2
                    {
                      OFFSET -3.9766 -1.54 2.3863
                      CHANNELS 6 Xposition Yposition Zposition Zrotation Xrotation Yrotation
                      JOINT rMid2_End
                      {
                        OFFSET -1.4042 -1.926 1.125
                        CHANNELS 6 Xposition Yposition Zposition Zrotation Xrotation Yrotation
                        End Site
                        {
                          OFFSET -0.014 -0.0193 0.0113
                        }
                      }
                    }
                  }
                }
                JOINT rCarpal2
                {
                  OFFSET -2.0956 0.66 -0.3894
                  CHANNELS 6 Xposition Yposition Zposition Zrotation Xrotation Yrotation
                  JOINT rRing1
                  {
                    OFFSET -5.0395 -0.09 2.4971
                    CHANNELS 6 Xposition Yposition Zposition Zrotation Xrotation Yrotation
                    JOINT rRing2
                    {
                      OFFSET -3.7921 -1.552 1.4806
                      CHANNELS 6 Xposition Yposition Zposition Zrotation Xrotation Yrotation
                      JOINT rRing2_End
                      {
                        OFFSET -1.4655 -1.808 0.9609
                        CHANNELS 6 Xposition Yposition Zposition Zrotation Xrotation Yrotation
                        End Site
                        {
                          OFFSET -0.0147 -0.0181 0.0096
                        }
                      }
                    }
                  }
                  JOINT rPinky1
                  {
                    OFFSET -4.9141 -1.269 0.3592
                    CHANNELS 6 Xposition Yposition Zposition Zrotation Xrotation Yrotation
                    JOINT rPinky2
                    {
                      OFFSET -3.1477 -1.685 0.8462
                      CHANNELS 6 Xposition Yposition Zposition Zrotation Xrotation Yrotation
                      JOINT rPinky2_End
                      {
                        OFFSET -0.8055 -1.585 0.7955
                        CHANNELS 6 Xposition Yposition Zposition Zrotation Xrotation Yrotation
                        End Site
                        {
                          OFFSET -0.0081 -0.0158 0.008
                        }
                      }
                    }
                  }
                }
              }
            }
          }
        }
      }
    }
  }
  JOINT lThigh
  {
    OFFSET 8.367 -8.2066 0.5982
    CHANNELS 6 Xposition Yposition Zposition Zrotation Xrotation Yrotation
    JOINT lShin
    {
      OFFSET 2.1923 -43.463 -0.4932
      CHANNELS 6 Xposition Yposition Zposition Zrotation Xrotation Yrotation
      JOINT lFoot
      {
        OFFSET 0.7333 -45.8593 -2.6451
        CHANNELS 6 Xposition Yposition Zposition Zrotation Xrotation Yrotation
        End Site
        {
          OFFSET 2.6618 -4.2699 12.3931
        }
      }
    }
  }
  JOINT rThigh
  {
    OFFSET -8.367 -8.2066 0.5982
    CHANNELS 6 Xposition Yposition Zposition Zrotation Xrotation Yrotation
    JOINT rShin
    {
      OFFSET -2.1923 -43.463 -0.4931
      CHANNELS 6 Xposition Yposition Zposition Zrotation Xrotation Yrotation
      JOINT rFoot
      {
        OFFSET -0.7333 -45.8593 -2.6451
        CHANNELS 6 Xposition Yposition Zposition Zrotation Xrotation Yrotation
        End Site
        {
          OFFSET -2.6618 -4.2699 12.3931
        }
      }
    }
  }
}
MOTION
Frames:	4
Frame Time:	0.0333333
7.17424 37.4036 -24.5018 0 33.9971 -0 0 -1.186 -1.5018 0.875468 11.7803 -0.548852 -8.88178e-016 9.964 0.2134 1.93257 23.5498 -1.32987 0 13.134 -3.2573 1.93257 23.5498 -1.32987 -8.88178e-016 20.686 -1.6905 0.304169 -1.57944 -0.0300197 0 7.238 -0.1237 0.0317076 -1.78222 -0.0109888 1.7069 20.075 5.0056 -12.7907 -9.88946 -15.09 13.6458 -0.047 -4.849 -37.5936 6.79691 -46.0452 28.3255 -0.9759 2.2888 -8.14158 -17.2669 -14.2617 22.1583 -0.53 10.8316 -4.96532 -41.6094 2.88214 0.786 0.112 2.5817 -2.0087e-007 1.29254e-007 -1.41538e-006 0.3601 -0.878 4.2331 8.82781e-032 -1.59028e-015 3.18055e-015 1.8127 -1.216 2.2227 2.64834e-031 -4.77083e-015 3.18055e-015 0.9571 1.114 1.7695 -7.95139e-016 0 -6.36111e-015 4.1246 0.487 4.1451 -2.0087e-007 1.29254e-007 -1.41538e-006 3.4052 -1.454 2.7682 7.06225e-031 -6.36111e-015 6.36111e-015 1.4531 -1.795 1.2713 2.38542e-015 -4.77083e-015 3.18055e-015 5.6954 0.21 2.1184 -2.0087e-007 1.29254e-007 -1.41538e-006 3.9766 -1.54 2.3863 7.06225e-031 -6.36111e-015 6.36111e-015 1.4042 -1.926 1.125 2.38542e-015 -4.77083e-015 3.18055e-015 2.0956 0.66 -0.3894 -7.95139e-016 0 -6.36111e-015 5.0395 -0.09 2.4971 -2.0087e-007 1.29254e-007 -1.41538e-006 3.7921 -1.552 1.4806 7.06225e-031 -6.36111e-015 6.36111e-015 1.4655 -1.808 0.9609 2.38542e-015 -4.77083e-015 3.18055e-015 4.9141 -1.269 0.3591 -2.0087e-007 1.29254e-007 -1.41538e-006 3.1477 -1.685 0.8462 7.06225e-031 -6.36111e-015 6.36111e-015 0.8055 -1.585 0.7955 2.38542e-015 -4.77083e-015 3.18055e-015 -1.7069 20.075 5.0056 3.48046 -12.6976 16.3419 -13.6458 -0.047 -4.849 34.2944 2.40551 56.8539 -28.3255 -0.9759 2.2888 8.8869 -16.6487 19.4685 -22.1583 -0.53 10.8316 -46.5223 -36.5533 -26.5282 -0.786 0.112 2.5817 -1.10583e-007 -8.54885e-007 -1.46594e-006 -0.3601 -0.878 4.2331 -1.53929e-007 1.46594e-006 -8.54885e-007 -1.8127 -1.216 2.2227 -5.52916e-008 -4.27443e-007 -7.32968e-007 -0.9571 1.114 1.7695 2.5842e-015 -1.59028e-015 1.59028e-015 -4.1246 0.487 4.1451 -1.10583e-007 -8.54885e-007 -1.46594e-006 -3.4052 -1.454 2.7682 -1.53929e-007 1.46594e-006 -8.54885e-007 -1.4531 -1.795 1.2713 -5.52915e-008 -4.27443e-007 -7.32968e-007 -5.6954 0.21 2.1184 -1.10583e-007 -8.54885e-007 -1.46594e-006 -3.9766 -1.54 2.3863 -1.53929e-007 1.46594e-006 -8.54885e-007 -1.4042 -1.926 1.125 -5.52915e-008 -4.27443e-007 -7.32968e-007 -2.0956 0.66 -0.3894 2.5842e-015 -1.59028e-015 1.59028e-015 -5.0395 -0.09 2.4971 -1.10583e-007 -8.54885e-007 -1.46594e-006 -3.7921 -1.552 1.4806 -1.53929e-007 1.46594e-006 -8.54885e-007 -1.4655 -1.808 0.9609 -5.52915e-008 -4.27443e-007 -7.32968e-007 -4.9141 -1.269 0.3592 -1.10583e-007 -8.54885e-007 -1.46594e-006 -3.1477 -1.685 0.8462 -1.53929e-007 1.46594e-006 -8.54885e-007 -0.8055 -1.585 0.7955 -5.52915e-008 -4.27443e-007 -7.32968e-007 8.367 -8.2066 0.5982 27.2752 -55.4277 -0.74648 2.1923 -43.463 -0.4932 157.556 77.4467 -156.449 0.7333 -45.8593 -2.6451 29.1334 63.5152 -47.0263 -8.367 -8.2066 0.5982 -10.7469 -63.297 -5.83733 -2.1923 -43.463 -0.4931 -168.505 62.5174 164.379 -0.7333 -45.8593 -2.6451 -18.0739 61.7952 16.7895 
7.17424 37.4036 -24.5018 0 33.9971 -0 0 -1.186 -1.5018 0.87508 11.7918 -0.549198 0 9.964 0.2134 1.93211 23.5728 -1.3308 -8.88178e-016 13.134 -3.2573 1.93211 23.5728 -1.3308 0 20.686 -1.6905 0.387837 -2.00614 -0.028299 0 7.238 -0.1237 0.0406455 -2.26389 -0.012649 1.7069 20.075 5.0056 -12.7002 -9.91419 -15.1687 13.6458 -0.047 -4.849 -37.0649 6.63075 -46.2852 28.3255 -0.9759 2.2888 -8.13377 -17.2719 -14.244 22.1583 -0.53 10.8316 -5.13171 -41.5733 2.54527 0.786 0.112 2.5817 -7.95139e-016 -4.77083e-015 6.36111e-015 0.3601 -0.878 4.2331 -7.95139e-016 -3.18055e-015 6.36111e-015 1.8127 -1.216 2.2227 7.95139e-016 -1.59028e-015 3.18055e-015 0.9571 1.114 1.7695 -7.95139e-016 -3.18055e-015 6.36111e-015 4.1246 0.487 4.1451 7.95139e-016 -3.18055e-015 1.27222e-014 3.4052 -1.454 2.7682 2.64834e-031 -4.77083e-015 3.18055e-015 1.4531 -1.795 1.2713 7.95139e-016 -4.77083e-015 -0 5.6954 0.21 2.1184 7.95139e-016 -3.18055e-015 1.27222e-014 3.9766 -1.54 2.3863 2.64834e-031 -4.77083e-015 3.18055e-015 1.4042 -1.926 1.125 7.95139e-016 -4.77083e-015 -0 2.0956 0.66 -0.3894 -7.95139e-016 -3.18055e-015 6.36111e-015 5.0395 -0.09 2.4971 7.95139e-016 -3.18055e-015 1.27222e-014 3.7921 -1.552 1.4806 2.64834e-031 -4.77083e-015 3.18055e-015 1.4655 -1.808 0.9609 7.95139e-016 -4.77083e-015 -0 4.9141 -1.269 0.3591 7.95139e-016 -3.18055e-015 1.27222e-014 3.1477 -1.685 0.8462 2.64834e-031 -4.77083e-015 3.18055e-015 0.8055 -1.585 0.7955 7.95139e-016 -4.77083e-015 -0 -1.7069 20.075 5.0056 3.40497 -12.7194 16.3398 -13.6458 -0.047 -4.849 33.8053 2.20747 57.0648 -28.3255 -0.9759 2.2888 8.88665 -16.649 19.4684 -22.1583 -0.53 10.8316 -46.7249 -36.4896 -26.5977 -0.786 0.112 2.5817 -5.60935e-008 -4.26381e-007 -7.33988e-007 -0.3601 -0.878 4.2331 -5.60935e-008 -4.26381e-007 -7.33988e-007 -1.8127 -1.216 2.2227 -5.60935e-008 -4.26381e-007 -7.33988e-007 -0.9571 1.114 1.7695 -1.98785e-016 1.59028e-015 -7.95139e-016 -4.1246 0.487 4.1451 -5.60935e-008 -4.26381e-007 -7.33988e-007 -3.4052 -1.454 2.7682 -5.60935e-008 -4.26381e-007 -7.33988e-007 -1.4531 -1.795 1.2713 -5.60935e-008 -4.26381e-007 -7.33988e-007 -5.6954 0.21 2.1184 -5.60935e-008 -4.26381e-007 -7.33988e-007 -3.9766 -1.54 2.3863 -5.60935e-008 -4.26381e-007 -7.33988e-007 -1.4042 -1.926 1.125 -5.60935e-008 -4.26381e-007 -7.33988e-007 -2.0956 0.66 -0.3894 -1.98785e-016 1.59028e-015 -7.95139e-016 -5.0395 -0.09 2.4971 -5.60935e-008 -4.26381e-007 -7.33988e-007 -3.7921 -1.552 1.4806 -5.60935e-008 -4.26381e-007 -7.33988e-007 -1.4655 -1.808 0.9609 -5.60935e-008 -4.26381e-007 -7.33988e-007 -4.9141 -1.269 0.3592 -5.60935e-008 -4.26381e-007 -7.33988e-007 -3.1477 -1.685 0.8462 -5.60935e-008 -4.26381e-007 -7.33988e-007 -0.8055 -1.585 0.7955 -5.60935e-008 -4.26381e-007 -7.33988e-007 8.367 -8.2066 0.5982 27.2748 -55.4278 -0.746806 2.1923 -43.463 -0.4932 157.556 77.4467 -156.449 0.7333 -45.8593 -2.6451 29.1334 63.5152 -47.0263 -8.367 -8.2066 0.5982 -10.7469 -63.297 -5.83733 -2.1923 -43.463 -0.4931 -168.505 62.5174 164.379 -0.7333 -45.8593 -2.6451 -18.0739 61.7952 16.7895 
7.17424 37.4036 -24.5018 0 33.9971 -0 0 -1.186 -1.5018 0.874691 11.8033 -0.549544 0 9.964 0.2134 1.93165 23.5959 -1.33173 -8.88178e-016 13.134 -3.2573 1.93165 23.5959 -1.33173 -8.88178e-016 20.686 -1.6905 0.462639 -2.38726 -0.0261419 -8.88178e-016 7.238 -0.1237 0.0486221 -2.69414 -0.0140586 1.7069 20.075 5.0056 -12.6194 -9.93639 -15.2389 13.6458 -0.047 -4.849 -36.5933 6.47995 -46.498 28.3255 -0.9759 2.2888 -8.12599 -17.2768 -14.2263 22.1583 -0.53 10.8316 -5.28002 -41.5406 2.24476 0.786 0.112 2.5817 1.33451e-007 3.7917e-007 -2.40912e-007 0.3601 -0.878 4.2331 -7.95139e-016 1.59028e-015 -3.18055e-015 1.8127 -1.216 2.2227 8.82781e-032 1.59028e-015 -3.18055e-015 0.9571 1.114 1.7695 7.95139e-016 -1.59028e-015 -0 4.1246 0.487 4.1451 1.33451e-007 3.7917e-007 -2.40912e-007 3.4052 -1.454 2.7682 -7.95139e-016 0 6.36111e-015 1.4531 -1.795 1.2713 8.82781e-032 1.59028e-015 -3.18055e-015 5.6954 0.21 2.1184 1.33451e-007 3.7917e-007 -2.40912e-007 3.9766 -1.54 2.3863 -7.95139e-016 0 6.36111e-015 1.4042 -1.926 1.125 8.82781e-032 1.59028e-015 -3.18055e-015 2.0956 0.66 -0.3894 7.95139e-016 -1.59028e-015 -0 5.0395 -0.09 2.4971 1.33451e-007 3.7917e-007 -2.40912e-007 3.7921 -1.552 1.4806 -7.95139e-016 0 6.36111e-015 1.4655 -1.808 0.9609 8.82781e-032 1.59028e-015 -3.18055e-015 4.9141 -1.269 0.3591 1.33451e-007 3.7917e-007 -2.40912e-007 3.1477 -1.685 0.8462 -7.95139e-016 0 6.36111e-015 0.8055 -1.585 0.7955 8.82781e-032 1.59028e-015 -3.18055e-015 -1.7069 20.075 5.0056 3.34096 -12.738 16.3381 -13.6458 -0.047 -4.849 33.3689 2.02846 57.2515 -28.3255 -0.9759 2.2888 8.88641 -16.6493 19.4683 -22.1583 -0.53 10.8316 -46.9272 -36.4258 -26.6669 -0.786 0.112 2.5817 -3.77691e-015 1.59028e-015 1.59028e-015 -0.3601 -0.878 4.2331 -3.18055e-015 3.18055e-015 1.59028e-015 -1.8127 -1.216 2.2227 2.98177e-016 4.77083e-015 1.59028e-015 -0.9571 1.114 1.7695 -3.77691e-015 0 1.59028e-015 -4.1246 0.487 4.1451 6.95746e-016 4.77083e-015 6.36111e-015 -3.4052 -1.454 2.7682 1.19271e-015 3.18055e-015 7.95139e-016 -1.4531 -1.795 1.2713 7.95139e-016 0 -0 -5.6954 0.21 2.1184 6.95746e-016 4.77083e-015 6.36111e-015 -3.9766 -1.54 2.3863 1.19271e-015 3.18055e-015 7.95139e-016 -1.4042 -1.926 1.125 7.95139e-016 0 -0 -2.0956 0.66 -0.3894 -3.77691e-015 0 1.59028e-015 -5.0395 -0.09 2.4971 6.95746e-016 4.77083e-015 6.36111e-015 -3.7921 -1.552 1.4806 1.19271e-015 3.18055e-015 7.95139e-016 -1.4655 -1.808 0.9609 7.95139e-016 0 -0 -4.9141 -1.269 0.3592 6.95746e-016 4.77083e-015 6.36111e-015 -3.1477 -1.685 0.8462 1.19271e-015 3.18055e-015 7.95139e-016 -0.8055 -1.585 0.7955 7.95139e-016 0 -0 8.367 -8.2066 0.5982 27.275 -55.4278 -0.746662 2.1923 -43.463 -0.4932 157.556 77.4467 -156.449 0.7333 -45.8593 -2.6451 29.1333 63.5152 -47.0262 -8.367 -8.2066 0.5982 -10.7469 -63.297 -5.83732 -2.1923 -43.463 -0.4931 -168.505 62.5174 164.379 -0.7333 -45.8593 -2.6451 -18.0739 61.7952 16.7895 
7.17424 37.4036 -24.5018 0 33.9971 -0 0 -1.186 -1.5018 0.874303 11.8149 -0.549891 0 9.964 0.2134 1.93119 23.619 -1.33266 8.88178e-016 13.134 -3.2573 1.93119 23.619 -1.33266 8.88178e-016 20.686 -1.6905 0.5375 -2.76851 -0.0234897 0 7.238 -0.1237 0.0565968 -3.12457 -0.0154094 1.7069 20.075 5.0056 -12.5387 -9.95871 -15.3091 13.6458 -0.047 -4.849 -36.1219 6.32729 -46.7096 28.3255 -0.9759 2.2888 -8.11818 -17.2818 -14.2086 22.1583 -0.53 10.8316 -5.428 -41.5073 1.9445 0.786 0.112 2.5817 7.95139e-016 -1.59028e-015 -0 0.3601 -0.878 4.2331 7.95139e-016 0 3.18055e-015 1.8127 -1.216 2.2227 0 1.59028e-015 -0 0.9571 1.114 1.7695 7.95139e-016 -1.59028e-015 -3.18055e-015 4.1246 0.487 4.1451 1.59028e-015 0 -0 3.4052 -1.454 2.7682 -1.76556e-031 1.59028e-015 6.36111e-015 1.4531 -1.795 1.2713 -0 0 3.18055e-015 5.6954 0.21 2.1184 1.59028e-015 0 -0 3.9766 -1.54 2.3863 -1.76556e-031 1.59028e-015 6.36111e-015 1.4042 -1.926 1.125 -0 0 3.18055e-015 2.0956 0.66 -0.3894 7.95139e-016 -1.59028e-015 -3.18055e-015 5.0395 -0.09 2.4971 1.59028e-015 0 -0 3.7921 -1.552 1.4806 -1.76556e-031 1.59028e-015 6.36111e-015 1.4655 -1.808 0.9609 -0 0 3.18055e-015 4.9141 -1.269 0.3591 1.59028e-015 0 -0 3.1477 -1.685 0.8462 -1.76556e-031 1.59028e-015 6.36111e-015 0.8055 -1.585 0.7955 -0 0 3.18055e-015 -1.7069 20.075 5.0056 3.27695 -12.7566 16.3362 -13.6458 -0.047 -4.849 32.9328 1.84789 57.4369 -28.3255 -0.9759 2.2888 8.88613 -16.6496 19.4683 -22.1583 -0.53 10.8316 -47.1292 -36.3617 -26.7357 -0.786 0.112 2.5817 -1.98785e-015 1.59028e-015 -1.98785e-015 -0.3601 -0.878 4.2331 -5.66536e-015 1.59028e-015 -2.38542e-015 -1.8127 -1.216 2.2227 -9.54166e-015 1.59028e-015 -7.95139e-016 -0.9571 1.114 1.7695 1.49089e-015 1.59028e-015 -1.19271e-015 -4.1246 0.487 4.1451 -3.8763e-015 -4.77083e-015 6.36111e-015 -3.4052 -1.454 2.7682 -1.42131e-014 0 -1.59028e-015 -1.4531 -1.795 1.2713 -5.26779e-015 1.59028e-015 -7.95139e-016 -5.6954 0.21 2.1184 -3.8763e-015 -4.77083e-015 6.36111e-015 -3.9766 -1.54 2.3863 -1.42131e-014 0 -1.59028e-015 -1.4042 -1.926 1.125 -5.26779e-015 1.59028e-015 -7.95139e-016 -2.0956 0.66 -0.3894 1.49089e-015 1.59028e-015 -1.19271e-015 -5.0395 -0.09 2.4971 -3.8763e-015 -4.77083e-015 6.36111e-015 -3.7921 -1.552 1.4806 -1.42131e-014 0 -1.59028e-015 -1.4655 -1.808 0.9609 -5.26779e-015 1.59028e-015 -7.95139e-016 -4.9141 -1.269 0.3592 -3.8763e-015 -4.77083e-015 6.36111e-015 -3.1477 -1.685 0.8462 -1.42131e-014 0 -1.59028e-015 -0.8055 -1.585 0.7955 -5.26779e-015 1.59028e-015 -7.95139e-016 8.367 -8.2066 0.5982 27.2747 -55.4279 -0.746951 2.1923 -43.463 -0.4932 157.557 77.4466 -156.449 0.7333 -45.8593 -2.6451 29.1333 63.5151 -47.0262 -8.367 -8.2066 0.5982 -10.7469 -63.297 -5.83732 -2.1923 -43.463 -0.4931 -168.505 62.5174 164.379 -0.7333 -45.8593 -2.6451 -18.0739 61.7952 16.7895 
